<svg width="26" height="26" viewBox="0 0 26 26" fill="none" xmlns="http://www.w3.org/2000/svg">

<path fill-rule="evenodd" clip-rule="evenodd" d="M13 6C9.13401 6 6 9.13401 6 13C6 16.866 9.13401 20 13 20C16.5265 20 19.4439 17.3923 19.9291 14H14C13.4477 14 13 13.5523 13 13C13 12.4477 13.4477 12 14 12H21C21.5523 12 22 12.4477 22 13C22 17.9706 17.9706 22 13 22C8.02944 22 4 17.9706 4 13C4 8.02944 8.02944 4 13 4C15.4761 4 17.7202 5.00122 19.3464 6.61854C19.738 7.008 19.7397 7.64116 19.3503 8.03275C18.9608 8.42434 18.3277 8.42608 17.9361 8.03662C16.6693 6.77681 14.9264 6 13 6Z" fill="#2f2f37"/>
</svg>
