<svg width="28" height="28" viewBox="0 0 16 20" fill="none" xmlns="http://www.w3.org/2000/svg">
<path fill-rule="evenodd" clip-rule="evenodd" d="M2.1 0.5C1.21635 0.5 0.5 1.21634 0.5 2.1V17.9C0.5 18.7837 1.21636 19.5 2.1 19.5H10C13.0376 19.5 15.5 17.0376 15.5 14C15.5 12.1619 14.5983 10.5344 13.2131 9.53567C14.0163 8.57964 14.5 7.34631 14.5 6C14.5 2.96243 12.0376 0.5 9 0.5H2.1ZM9 8.5C10.3807 8.5 11.5 7.38071 11.5 6C11.5 4.61929 10.3807 3.5 9 3.5H3.5V8.5H9ZM3.5 11.5V16.5H10C11.3807 16.5 12.5 15.3807 12.5 14C12.5 12.6193 11.3807 11.5 10 11.5H3.5Z" fill="#2f2f37"/>
</svg>
