<svg width="28" height="28" viewBox="0 0 12 20" fill="none" xmlns="http://www.w3.org/2000/svg">
<path d="M10 0.499939H7.02148C7.00581 0.499694 6.99017 0.499695 6.97459 0.499939H4C3.17157 0.499939 2.5 1.17151 2.5 1.99994C2.5 2.82837 3.17157 3.49994 4 3.49994H5.30074L3.67574 16.4999H2C1.17157 16.4999 0.5 17.1715 0.5 17.9999C0.5 18.8284 1.17157 19.4999 2 19.4999H4.9818C4.99516 19.5001 5.00849 19.5001 5.02179 19.4999H8C8.82843 19.4999 9.5 18.8284 9.5 17.9999C9.5 17.1715 8.82843 16.4999 8 16.4999H6.69908L8.32408 3.49994H10C10.8284 3.49994 11.5 2.82837 11.5 1.99994C11.5 1.17151 10.8284 0.499939 10 0.499939Z" fill="#2f2f37"/>
</svg>
