<svg width="26" height="26" viewBox="0 0 26 26" fill="none" xmlns="http://www.w3.org/2000/svg">

<path d="M7.31507 7.17592C7.06528 6.53804 7.07509 5.80911 7.18645 5.14164C7.94443 5.3743 8.67583 5.73056 9.30658 6.21261C9.58532 6.42563 9.95261 6.49547 10.2949 6.39175C11.1245 6.14037 12.0377 6.00008 13 6.00008C13.9614 6.00008 14.8737 6.1401 15.7027 6.39103C16.0449 6.4946 16.4119 6.42479 16.6906 6.21193C17.3211 5.73024 18.0522 5.37419 18.8098 5.14164C18.9211 5.80847 18.9309 6.53652 18.682 7.17398C18.532 7.55795 18.6072 8.00009 18.8898 8.31369C19.6138 9.11696 20 10.0408 20 11.0001C20 13.1142 18.0306 15.187 14.8662 15.8182C14.0738 15.9763 13.7646 16.9726 14.3711 17.544C14.7596 17.91 15 18.4261 15 19.0001V22.0001C15 22.5523 15.4477 23.0001 16 23.0001C16.5523 23.0001 17 22.5523 17 22.0001V19.0001C17 18.4303 16.8805 17.888 16.6657 17.3972C19.6831 16.3498 22 13.9925 22 11.0001C22 9.65251 21.5156 8.41484 20.7128 7.37804C20.9226 6.55843 20.904 5.73178 20.8242 5.09759C20.7528 4.53005 20.6535 3.78566 20.2532 3.34211C19.6586 2.68341 18.6732 3.07099 17.9732 3.31048C17.3548 3.52075 16.5898 3.85589 15.8487 4.35549C14.9512 4.12436 13.993 4.00008 13 4.00008C12.006 4.00008 11.0468 4.12461 10.1486 4.35618C9.4074 3.85633 8.64217 3.52103 8.02354 3.31066C7.32363 3.07114 6.33755 2.68338 5.74302 3.34223C5.33543 3.7939 5.24955 4.47917 5.17668 5.06064L5.17186 5.09904C5.09212 5.73386 5.07374 6.56141 5.28443 7.38166C4.48323 8.41773 4 9.6541 4 11.0001C4 13.9925 6.3169 16.3498 9.33434 17.3972C9.12194 17.8823 9.00278 18.4177 9.00005 18.9803L8.8323 19.0138C8.11546 19.1126 7.65626 19.0246 7.3437 18.892C6.58364 18.5696 6.19225 17.7586 5.71319 17.1387C5.41554 16.7535 4.98203 16.2733 4.31625 16.0514C3.79231 15.8768 3.22599 16.1599 3.05134 16.6839C2.8767 17.2078 3.15986 17.7741 3.6838 17.9488C4.24249 18.135 4.62811 19.0909 4.98181 19.5153C5.35469 19.9628 5.85081 20.4312 6.5626 20.7332C7.24412 21.0223 8.0447 21.1258 9 21.0088V22.0001C9 22.5523 9.44772 23.0001 10 23.0001C10.5523 23.0001 11 22.5523 11 22.0001V19.0001C11 18.4261 11.2404 17.91 11.6289 17.544C12.2355 16.9725 11.926 15.9763 11.1338 15.8182C7.96942 15.187 6 13.1142 6 11.0001C6 10.0417 6.38549 9.11879 7.10804 8.31608C7.39058 8.0022 7.46541 7.55985 7.31507 7.17592Z" fill="#2f2f37"/>
</svg>
