<svg width="20" height="20" viewBox="0 0 26 26" fill="none" xmlns="http://www.w3.org/2000/svg">
<path d="M5.22175 5.2216C3.07387 7.36948 3.07387 10.8519 5.22175 12.9998L7.34307 15.1211C7.7336 15.5116 8.36676 15.5116 8.75729 15.1211C9.14781 14.7306 9.14781 14.0974 8.75729 13.7069L6.63597 11.5856C5.26913 10.2187 5.26913 8.00265 6.63597 6.63581C8.0028 5.26898 10.2189 5.26898 11.5857 6.63581L13.707 8.75713C14.0976 9.14766 14.7307 9.14766 15.1212 8.75713C15.5118 8.36661 15.5118 7.73344 15.1212 7.34292L12.9999 5.2216C10.852 3.07372 7.36964 3.07372 5.22175 5.2216Z" fill="#2f2f37"/>
<path d="M12.2928 17.2424C11.9023 16.8519 11.2691 16.8519 10.8786 17.2424C10.4881 17.6329 10.4881 18.2661 10.8786 18.6566L12.9999 20.7779C15.1478 22.9258 18.6302 22.9258 20.7781 20.7779C22.926 18.6301 22.926 15.1477 20.7781 12.9998L18.6568 10.8785C18.2663 10.4879 17.6331 10.4879 17.2426 10.8785C16.852 11.269 16.852 11.9021 17.2426 12.2927L19.3639 14.414C20.7307 15.7808 20.7307 17.9969 19.3639 19.3637C17.9971 20.7306 15.781 20.7306 14.4141 19.3637L12.2928 17.2424Z" fill="#2f2f37"/>
<path d="M11.5856 10.1713C11.1951 9.78082 10.5619 9.78082 10.1714 10.1713C9.78084 10.5619 9.78084 11.195 10.1714 11.5856L14.414 15.8282C14.8045 16.2187 15.4377 16.2187 15.8282 15.8282C16.2187 15.4377 16.2187 14.8045 15.8282 14.414L11.5856 10.1713Z" fill="#2f2f37"/>
<path d="M18 4C18 3.44772 17.5523 3 17 3C16.4477 3 16 3.44772 16 4V6C16 6.55228 16.4477 7 17 7C17.5523 7 18 6.55228 18 6V4Z" fill="#2f2f37"/>
<path d="M10 20C10 19.4477 9.55228 19 9 19C8.44772 19 8 19.4477 8 20V22C8 22.5523 8.44772 23 9 23C9.55228 23 10 22.5523 10 22V20Z" fill="#2f2f37"/>
<path d="M19 8C19 7.44772 19.4477 7 20 7H21C21.5523 7 22 7.44772 22 8C22 8.55228 21.5523 9 21 9H20C19.4477 9 19 8.55228 19 8Z" fill="#2f2f37"/>
<path d="M5 17C4.44772 17 4 17.4477 4 18C4 18.5523 4.44772 19 5 19H6C6.55228 19 7 18.5523 7 18C7 17.4477 6.55228 17 6 17H5Z" fill="#2f2f37"/>
</svg>
