<svg width="26" height="26" viewBox="0 0 26 26" fill="none" xmlns="http://www.w3.org/2000/svg">

<path d="M10.7383 15.2627C12.7608 17.2852 14.692 17.5518 15.374 17.5769C16.4165 17.6153 17.4188 16.8283 17.8148 15.9042C17.9112 15.6792 17.8872 15.4085 17.7255 15.2014C17.1782 14.5005 16.4374 13.9983 15.7134 13.4984C15.4007 13.282 14.9705 13.349 14.7402 13.6555L14.1394 14.5706C14.0728 14.6721 13.9402 14.707 13.8348 14.6467C13.4284 14.4143 12.8357 14.018 12.4093 13.5916C11.9834 13.1657 11.6112 12.5998 11.4022 12.2195C11.3473 12.1195 11.3778 11.996 11.4693 11.928L12.3927 11.2422C12.6681 11.0038 12.7166 10.5989 12.5138 10.3023C12.065 9.64569 11.5422 8.8112 10.7856 8.25926C10.5789 8.1085 10.3175 8.09158 10.1016 8.18408C9.17688 8.5804 8.38562 9.58294 8.42404 10.6269C8.44914 11.3089 8.71578 13.2402 10.7383 15.2627Z" fill="#2f2f37"/>
<path fill-rule="evenodd" clip-rule="evenodd" d="M13 3C7.47715 3 3 7.47715 3 13C3 14.8896 3.52505 16.6594 4.43756 18.1683L3.54581 21.2002C3.32023 21.9672 4.03284 22.6798 4.79975 22.4542L7.83171 21.5624C9.34058 22.475 11.1104 23 13 23C18.5228 23 23 18.5228 23 13C23 7.47715 18.5228 3 13 3ZM5 13C5 8.58172 8.58172 5 13 5C17.4183 5 21 8.58172 21 13C21 17.4183 17.4183 21 13 21C11.4231 21 9.95564 20.5448 8.71817 19.759C8.36114 19.5323 7.91075 19.4545 7.47827 19.5817L5.97667 20.0233L6.41832 18.5217C6.54552 18.0892 6.46769 17.6389 6.24098 17.2818C5.4552 16.0444 5 14.5769 5 13Z" fill="#09244B"/>
</svg>
