<svg width="32" height="32" viewBox="0 0 26 26" fill="none" xmlns="http://www.w3.org/2000/svg">
<path fill-rule="evenodd" clip-rule="evenodd" d="M9 10C9 7.79086 10.7909 6 13 6C15.2091 6 17 7.79086 17 10C17 12.2091 15.2091 14 13 14C10.7909 14 9 12.2091 9 10ZM13 8C11.8954 8 11 8.89543 11 10C11 11.1046 11.8954 12 13 12C14.1046 12 15 11.1046 15 10C15 8.89543 14.1046 8 13 8Z" fill="#000000"/>
<path fill-rule="evenodd" clip-rule="evenodd" d="M13 3C7.47715 3 3 7.47715 3 13C3 18.5228 7.47715 23 13 23C18.5228 23 23 18.5228 23 13C23 7.47715 18.5228 3 13 3ZM5 13C5 8.58172 8.58172 5 13 5C17.4183 5 21 8.58172 21 13C21 14.5996 20.5305 16.0896 19.7218 17.3396C18.0731 15.9918 15.6653 15 13 15C10.3347 15 7.92692 15.9918 6.27819 17.3396C5.46949 16.0896 5 14.5996 5 13ZM7.56532 18.8707C8.9922 20.1922 10.9018 21 13 21C15.0982 21 17.0078 20.1922 18.4347 18.8707C17.1488 17.828 15.1991 17 13 17C10.8009 17 8.85121 17.828 7.56532 18.8707Z" fill="#000000"/>
</svg>
