<svg width="20" height="20" viewBox="0 0 20 20" fill="none" xmlns="http://www.w3.org/2000/svg">
<path d="M2.22175 2.2216C0.0738691 4.36948 0.0738691 7.85189 2.22175 9.99977L4.34307 12.1211C4.7336 12.5116 5.36676 12.5116 5.75729 12.1211C6.14781 11.7306 6.14781 11.0974 5.75729 10.7069L3.63597 8.58556C2.26913 7.21873 2.26913 5.00265 3.63597 3.63581C5.0028 2.26898 7.21888 2.26898 8.58571 3.63581L10.707 5.75713C11.0976 6.14766 11.7307 6.14766 12.1212 5.75713C12.5118 5.36661 12.5118 4.73344 12.1212 4.34292L9.99993 2.2216C7.85204 0.0737169 4.36964 0.0737164 2.22175 2.2216Z" fill="#2f2f37"/>
<path d="M9.29282 14.2424C8.9023 13.8519 8.26913 13.8519 7.87861 14.2424C7.48808 14.6329 7.48808 15.2661 7.87861 15.6566L9.99993 17.7779C12.1478 19.9258 15.6302 19.9258 17.7781 17.7779C19.926 15.6301 19.926 12.1477 17.7781 9.99977L15.6568 7.87845C15.2663 7.48793 14.6331 7.48793 14.2426 7.87845C13.852 8.26898 13.852 8.90214 14.2426 9.29267L16.3639 11.414C17.7307 12.7808 17.7307 14.9969 16.3639 16.3637C14.9971 17.7306 12.781 17.7306 11.4141 16.3637L9.29282 14.2424Z" fill="#2f2f37"/>
<path d="M8.58558 7.17134C8.19505 6.78082 7.56189 6.78082 7.17136 7.17134C6.78084 7.56187 6.78084 8.19503 7.17136 8.58556L11.414 12.8282C11.8045 13.2187 12.4377 13.2187 12.8282 12.8282C13.2187 12.4377 13.2187 11.8045 12.8282 11.414L8.58558 7.17134Z" fill="#2f2f37"/>
<path d="M15 1C15 0.447715 14.5523 0 14 0C13.4477 0 13 0.447715 13 1V3C13 3.55228 13.4477 4 14 4C14.5523 4 15 3.55228 15 3V1Z" fill="#2f2f37"/>
<path d="M7 17C7 16.4477 6.55228 16 6 16C5.44772 16 5 16.4477 5 17V19C5 19.5523 5.44772 20 6 20C6.55228 20 7 19.5523 7 19V17Z" fill="#2f2f37"/>
<path d="M16 5C16 4.44772 16.4477 4 17 4H18C18.5523 4 19 4.44772 19 5C19 5.55228 18.5523 6 18 6H17C16.4477 6 16 5.55228 16 5Z" fill="#2f2f37"/>
<path d="M2 14C1.44772 14 1 14.4477 1 15C1 15.5523 1.44772 16 2 16H3C3.55228 16 4 15.5523 4 15C4 14.4477 3.55228 14 3 14H2Z" fill="#2f2f37"/>
</svg>
